<svg width="24" height="24" viewBox="0 0 24 24" fill="none" xmlns="http://www.w3.org/2000/svg">
<path d="M10.5495 2.53208C11.3874 1.82549 12.6126 1.82549 13.4505 2.53208L20.2005 8.22419C20.7074 8.6517 21 9.28109 21 9.94425V19.747C21 20.7135 20.2165 21.497 19.25 21.497H15.75C14.7835 21.497 14 20.7135 14 19.747V14.247C14 14.1089 13.8881 13.997 13.75 13.997H10.25C10.1119 13.997 9.99999 14.1089 9.99999 14.247V19.747C9.99999 20.7135 9.2165 21.497 8.25 21.497H4.75C3.7835 21.497 3 20.7135 3 19.747V9.94425C3 9.28109 3.29255 8.6517 3.79952 8.22419L10.5495 2.53208ZM12.4835 3.67878C12.2042 3.44325 11.7958 3.44325 11.5165 3.67878L4.76651 9.37089C4.59752 9.5134 4.5 9.72319 4.5 9.94425V19.747C4.5 19.8851 4.61193 19.997 4.75 19.997H8.25C8.38807 19.997 8.49999 19.8851 8.49999 19.747V14.247C8.49999 13.2805 9.2835 12.497 10.25 12.497H13.75C14.7165 12.497 15.5 13.2805 15.5 14.247V19.747C15.5 19.8851 15.6119 19.997 15.75 19.997H19.25C19.3881 19.997 19.5 19.8851 19.5 19.747V9.94425C19.5 9.72319 19.4025 9.5134 19.2335 9.37089L12.4835 3.67878Z" fill="#605E5C"/>
</svg>
