<svg width="20" height="1000" viewBox="0 0 20 1000" fill="none" xmlns="http://www.w3.org/2000/svg">
<g clip-path="url(#clip0_9004:23105)">
<path d="M10 0L10 24" stroke="#E1DFDD" stroke-linecap="round"/>
<path d="M10 48L10 1000" stroke="#E1DFDD" stroke-linecap="round"/>
<path d="M14.5 29C15.8807 29 17 30.1193 17 31.5V40.5C17 41.8807 15.8807 43 14.5 43H5.5C4.11929 43 3 41.8807 3 40.5V31.5C3 30.1193 4.11929 29 5.5 29H14.5ZM12.7181 35H7.28194C6.83618 35 6.67454 35.0464 6.51158 35.1336C6.34861 35.2207 6.22072 35.3486 6.13357 35.5116C6.05731 35.6542 6.01224 35.7958 6.00216 36.1275L6 36.2819V38.7181C6 39.1638 6.04641 39.3255 6.13357 39.4884C6.22072 39.6514 6.34861 39.7793 6.51158 39.8664C6.65417 39.9427 6.79575 39.9878 7.12754 39.9978L7.28194 40H12.7181C13.1638 40 13.3255 39.9536 13.4884 39.8664C13.6514 39.7793 13.7793 39.6514 13.8664 39.4884C13.9427 39.3458 13.9878 39.2042 13.9978 38.8725L14 38.7181V36.2819C14 35.8362 13.9536 35.6745 13.8664 35.5116C13.7793 35.3486 13.6514 35.2207 13.4884 35.1336C13.3458 35.0573 13.2042 35.0122 12.8725 35.0022L12.7181 35ZM12.9122 36.0018L12.9926 36.0074L12.9982 36.0878V38.9122L12.9926 38.9926L12.9122 38.9982H7.0878L7.0074 38.9926L7.00175 38.9122V36.0878L7.0074 36.0074L7.0878 36.0018H12.9122ZM13.5 32H6.5L6.41012 32.0081C6.17688 32.0504 6 32.2545 6 32.5C6 32.7455 6.17688 32.9496 6.41012 32.9919L6.5 33H13.5L13.5899 32.9919C13.8231 32.9496 14 32.7455 14 32.5C14 32.2545 13.8231 32.0504 13.5899 32.0081L13.5 32Z" fill="#605E5C"/>
</g>
<defs>
<clipPath id="clip0_9004:23105">
<path d="M0 0H20V1000H0V0Z" fill="white"/>
</clipPath>
</defs>
</svg>
