<svg xmlns="http://www.w3.org/2000/svg" width="16" height="16" viewBox="0 0 16 16">
  <path d="M8,.5a6.4,6.4,0,0,1,2,.3,6.69,6.69,0,0,1,1.8.7,5.707,5.707,0,0,1,1.5,1.2,5.707,5.707,0,0,1,1.2,1.5A6.69,6.69,0,0,1,15.2,6a6.4,6.4,0,0,1,.3,2,6.4,6.4,0,0,1-.3,2,6.69,6.69,0,0,1-.7,1.8,5.707,5.707,0,0,1-1.2,1.5,5.707,5.707,0,0,1-1.5,1.2,6.69,6.69,0,0,1-1.8.7,6.4,6.4,0,0,1-2,.3,6.4,6.4,0,0,1-2-.3,6.69,6.69,0,0,1-1.8-.7,5.707,5.707,0,0,1-1.5-1.2,5.707,5.707,0,0,1-1.2-1.5A6.69,6.69,0,0,1,.8,10,6.4,6.4,0,0,1,.5,8,6.4,6.4,0,0,1,.8,6a6.69,6.69,0,0,1,.7-1.8A5.707,5.707,0,0,1,2.7,2.7,5.707,5.707,0,0,1,4.2,1.5,6.69,6.69,0,0,1,6,.8,6.4,6.4,0,0,1,8,.5Zm0,14,1.7-.2,1.6-.7,1.3-1a6.4,6.4,0,0,0,1-1.3,7.721,7.721,0,0,0,.7-1.6A8.76,8.76,0,0,0,14.5,8a8.76,8.76,0,0,0-.2-1.7,7.721,7.721,0,0,0-.7-1.6,6.4,6.4,0,0,0-1-1.3l-1.3-1L9.7,1.7,8,1.5l-1.7.2-1.6.7-1.3,1a6.4,6.4,0,0,0-1,1.3,7.721,7.721,0,0,0-.7,1.6A8.76,8.76,0,0,0,1.5,8a8.76,8.76,0,0,0,.2,1.7,7.721,7.721,0,0,0,.7,1.6,6.4,6.4,0,0,0,1,1.3l1.3,1,1.6.7Zm.5-7h4v1h-4v4h-1v-4h-4v-1h4v-4h1Z" />
</svg>