<svg width="48" height="48" viewBox="0 0 48 48" fill="none" xmlns="http://www.w3.org/2000/svg">
<circle cx="24" cy="24" r="24" fill="#FDF6D7"/>
<path d="M24 22C27.3137 22 30 20.6569 30 19C30 17.3431 27.3137 16 24 16C20.6863 16 18 17.3431 18 19C18 20.6569 20.6863 22 24 22ZM28.6899 22.0157C29.1593 21.781 29.6173 21.4823 30 21.1203V29C30 30.6569 27.3137 32 24 32C20.6863 32 18 30.6569 18 29V21.1203C18.3827 21.4823 18.8407 21.781 19.3101 22.0157C20.5621 22.6417 22.2216 23 24 23C25.7784 23 27.4379 22.6417 28.6899 22.0157Z" fill="#A98C0C"/>
</svg>
