<svg width="48" height="48" viewBox="0 0 48 48" fill="none" xmlns="http://www.w3.org/2000/svg">
<circle cx="24" cy="24" r="24" fill="#E2E2F6"/>
<path d="M22.5522 28.0284C22.7996 29.8559 23.9054 31.4107 25.4503 32.2736L24.0487 32.845C23.2016 33.1906 22.228 32.9174 21.6844 32.1815L21.4132 31.8144C20.8718 31.0815 20.8943 30.0752 21.4679 29.3672L22.5522 28.0284ZM28.25 22.5C30.8734 22.5 33 24.6266 33 27.25C33 29.8734 30.8734 32 28.25 32C25.6266 32 23.5 29.8734 23.5 27.25C23.5 24.6266 25.6266 22.5 28.25 22.5ZM19.75 15C19.945 15 20.1373 15.0118 20.3262 15.0346L20.605 15.077L20.4664 15.1209C20.1998 15.213 19.9316 15.3428 19.6789 15.5054C17.9679 16.6065 17.4569 18.8872 18.5386 20.6023C19.6223 22.3204 21.8924 22.8182 23.6064 21.7153C23.8545 21.5557 24.0826 21.3678 24.2885 21.1561C23.6895 23.0926 21.8841 24.5 19.75 24.5C17.1266 24.5 15 22.3734 15 19.75C15 17.1266 17.1266 15 19.75 15ZM25.1171 15.4567L25.2077 15.558L25.2985 15.6803L25.74 16.3297C26.0966 16.8535 26.0848 17.5441 25.7144 18.0543L25.6224 18.1697L23.7397 20.3511C23.5753 20.5433 23.391 20.7114 23.188 20.8523C21.9694 21.698 20.311 21.3945 19.4813 20.1757C18.6497 18.9539 18.9649 17.2741 20.1865 16.4263C20.4123 16.2696 20.656 16.1503 20.9112 16.0698L23.5252 15.1016C24.0845 14.8942 24.7075 15.0392 25.1171 15.4567ZM23.9824 16.1444C23.7724 16.2714 23.6893 16.5284 23.7738 16.7499L23.8134 16.831L24.0722 17.2588L24.1256 17.3315C24.2825 17.5092 24.5488 17.5549 24.7588 17.4278C24.9688 17.3008 25.0519 17.0438 24.9674 16.8223L24.9278 16.7412L24.669 16.3134L24.6156 16.2407C24.4587 16.063 24.1925 16.0173 23.9824 16.1444Z" fill="#464775"/>
</svg>
