<svg width="48" height="48" viewBox="0 0 48 48" fill="none" xmlns="http://www.w3.org/2000/svg">
<circle cx="24" cy="24" r="24" fill="#CAEAD8"/>
<path d="M23.625 19L27.5 19.0053C28.8314 19.0053 29.9197 20.0455 29.9958 21.3571L30 21.5039V22.3368H31.1667C31.3184 22.3368 31.4608 22.3774 31.5833 22.4483C31.8047 22.5763 31.9618 22.8032 31.9939 23.0685L32 23.1697V24.8355C32 25.1438 31.8324 25.413 31.5833 25.557C31.4914 25.6101 31.3883 25.6462 31.2786 25.661L31.1667 25.6684H30V26.5013C30 27.832 28.9593 28.9197 27.6469 28.9957L27.5 29L21.1206 28.9947C20.8042 28.9947 20.5427 28.7597 20.5013 28.4548L20.4956 28.37V24.622C20.4956 24.3058 20.7307 24.0444 21.0358 24.003L21.1206 23.9973H21.8522C22.4488 23.9973 22.9391 23.5424 22.9947 22.9606L23 22.8501V19.6246C23 19.3084 23.2351 19.047 23.5402 19.0057L23.625 19L27.5 19.0053L23.625 19ZM20.2909 17.339L20.3758 17.3333C20.6922 17.3333 20.9537 17.5684 20.995 17.8735L21.0008 17.9583L21 19L21.375 19.0057C21.7202 19.0057 22 19.2855 22 19.6307V21.5424C22 22.3478 21.3471 23.0007 20.5417 23.0007L19.6244 23L19.625 28.375C19.625 28.6914 19.3899 28.9529 19.0848 28.9943L19 29C18.6836 29 18.4221 28.7649 18.3807 28.4598L18.375 28.375L18.375 23L17.4583 23.0007C16.6529 23.0007 16 22.3478 16 21.5424V19.6307C16 19.2855 16.2798 19.0057 16.625 19.0057H16.9999L17 17.964C17 17.6476 17.2351 17.3861 17.5402 17.3447L17.625 17.339C17.9414 17.339 18.2029 17.5741 18.2443 17.8792L18.25 17.964L18.2499 19.0057L19.75 19L19.7508 17.9583C19.7508 17.6419 19.9859 17.3804 20.2909 17.339L20.3758 17.3333L20.2909 17.339Z" fill="#0C5F32"/>
</svg>
