<svg width="48" height="48" viewBox="0 0 48 48" fill="none" xmlns="http://www.w3.org/2000/svg">
<circle cx="24" cy="24" r="24" fill="#E6F0FF"/>
<path d="M16 19.5003C15.9998 18.1195 17.1192 17 18.5 17H21.164C21.4885 17 21.8043 17.1052 22.0639 17.2999L23.6642 18.5H28.4956C29.8763 18.5 30.9956 19.6193 30.9956 21V21.0021H19.8236C19.1058 21.0021 18.4886 21.5106 18.3513 22.2151L16.7742 30.3051C16.2979 29.85 16.0013 29.2085 16.0012 28.4978L16 19.5003ZM17.7732 30.4065C17.713 30.7152 17.9495 31.0021 18.264 31.0021H29.1798C29.8982 31.0021 30.5157 30.4929 30.6524 29.7877L32.0467 22.5973C32.1065 22.2887 31.8702 22.0021 31.5558 22.0021H19.8236C19.5843 22.0021 19.3786 22.1716 19.3328 22.4065L17.7732 30.4065Z" fill="#005CE6"/>
</svg>
