<svg width="48" height="48" viewBox="0 0 48 48" fill="none" xmlns="http://www.w3.org/2000/svg">
<circle cx="24" cy="24" r="24" fill="#F0F9FA"/>
<path d="M17.5 18C16.6716 18 16 18.6716 16 19.5V27.5C16 28.3284 16.6716 29 17.5 29H30.5C31.3284 29 32 28.3284 32 27.5V19.5C32 18.6716 31.3284 18 30.5 18H17.5ZM20.2547 21.2523C20.2547 21.6678 19.9179 22.0047 19.5024 22.0047C19.0868 22.0047 18.75 21.6678 18.75 21.2523C18.75 20.8368 19.0868 20.4999 19.5024 20.4999C19.9179 20.4999 20.2547 20.8368 20.2547 21.2523ZM26.2547 21.2523C26.2547 21.6678 25.9179 22.0047 25.5024 22.0047C25.0868 22.0047 24.75 21.6678 24.75 21.2523C24.75 20.8368 25.0868 20.4999 25.5024 20.4999C25.9179 20.4999 26.2547 20.8368 26.2547 21.2523ZM19 26.5C19 26.2239 19.2239 26 19.5 26H28.5C28.7761 26 29 26.2239 29 26.5C29 26.7761 28.7761 27 28.5 27H19.5C19.2239 27 19 26.7761 19 26.5ZM28.5024 22.0047C28.0868 22.0047 27.75 21.6678 27.75 21.2523C27.75 20.8368 28.0868 20.4999 28.5024 20.4999C28.9179 20.4999 29.2547 20.8368 29.2547 21.2523C29.2547 21.6678 28.9179 22.0047 28.5024 22.0047ZM20.9976 24.5047C20.5821 24.5047 20.2452 24.1678 20.2452 23.7523C20.2452 23.3368 20.5821 22.9999 20.9976 22.9999C21.4131 22.9999 21.75 23.3368 21.75 23.7523C21.75 24.1678 21.4131 24.5047 20.9976 24.5047ZM24.7547 23.7523C24.7547 24.1678 24.4179 24.5047 24.0024 24.5047C23.5868 24.5047 23.25 24.1678 23.25 23.7523C23.25 23.3368 23.5868 22.9999 24.0024 22.9999C24.4179 22.9999 24.7547 23.3368 24.7547 23.7523ZM27.0071 24.5047C26.5916 24.5047 26.2548 24.1678 26.2548 23.7523C26.2548 23.3368 26.5916 22.9999 27.0071 22.9999C27.4227 22.9999 27.7595 23.3368 27.7595 23.7523C27.7595 24.1678 27.4227 24.5047 27.0071 24.5047ZM23.2547 21.2523C23.2547 21.6678 22.9179 22.0047 22.5024 22.0047C22.0868 22.0047 21.75 21.6678 21.75 21.2523C21.75 20.8368 22.0868 20.4999 22.5024 20.4999C22.9179 20.4999 23.2547 20.8368 23.2547 21.2523Z" fill="#025C5F"/>
</svg>
