<svg width="48" height="48" viewBox="0 0 48 48" fill="none" xmlns="http://www.w3.org/2000/svg">
<circle cx="24" cy="24" r="24" fill="#F6E4F6"/>
<path d="M26.0215 16.7714C26.9761 15.8168 28.5239 15.8168 29.4786 16.7714C30.4332 17.7261 30.4332 19.2739 29.4786 20.2285L28.2071 21.5L28.2929 21.5858C29.0739 22.3668 29.0739 23.6332 28.2929 24.4142L26.8536 25.8536C26.6583 26.0488 26.3417 26.0488 26.1464 25.8536C25.9512 25.6583 25.9512 25.3417 26.1464 25.1464L27.5858 23.7071C27.9763 23.3166 27.9763 22.6834 27.5858 22.2929L27.5 22.2071L20.8536 28.8535C20.7895 28.9176 20.7092 28.9631 20.6213 28.985L16.6213 29.985C16.4442 30.0293 16.2571 29.9736 16.1331 29.8397C16.0092 29.7058 15.968 29.515 16.0257 29.3419L17.2757 25.5919C17.3002 25.5182 17.3416 25.4513 17.3965 25.3964L26.0215 16.7714ZM17.2684 30.9044C17.2512 30.8919 17.2341 30.8794 17.2172 30.8668L18.566 30.5296C19.104 30.8001 19.754 31.0001 20.5 31.0001C21.007 31.0001 21.5139 30.8226 22.0338 30.5265C22.556 30.2292 23.0579 29.8322 23.5597 29.4245L23.6898 29.3186C24.1347 28.9562 24.5919 28.5838 25.0274 28.3271C25.4992 28.0491 26.0707 27.83 26.6581 28.0258C27.4795 28.2997 27.739 29.0557 27.979 29.8567C28.0338 30.0397 28.1279 30.2206 28.2393 30.3457C28.3501 30.4702 28.4391 30.5002 28.5 30.5002C28.6869 30.5002 28.9559 30.3984 29.2974 30.197C29.5131 30.0697 29.7005 29.9402 29.8854 29.8124C29.9984 29.7343 30.1108 29.6567 30.2279 29.5807C30.5458 29.3745 30.82 29.237 31.0189 29.1498C31.1184 29.1061 31.1993 29.075 31.2575 29.0542C31.2866 29.0437 31.3101 29.0358 31.3275 29.0302L31.3489 29.0235L31.3561 29.0213L31.3587 29.0205L31.3599 29.0202L31.5 29.5002C31.3608 29.0199 31.36 29.0202 31.3599 29.0202C31.6251 28.9433 31.9034 29.0958 31.9802 29.361C32.0569 29.6254 31.9053 29.9019 31.6415 29.9797L31.6346 29.9819C31.6271 29.9843 31.6136 29.9888 31.5948 29.9956C31.557 30.0091 31.4977 30.0317 31.4205 30.0656C31.2659 30.1334 31.0401 30.2458 30.7721 30.4197C30.7012 30.4656 30.6107 30.5279 30.5085 30.5982C30.3006 30.7411 30.044 30.9176 29.8054 31.0583C29.4432 31.2719 28.9742 31.5002 28.5 31.5002C28.0609 31.5001 27.7209 31.2674 27.4924 31.0106C27.2643 30.7544 27.1084 30.4353 27.021 30.1436C26.7585 29.2672 26.607 29.0629 26.3419 28.9745C26.1792 28.9203 25.9383 28.9511 25.5351 29.1887C25.1686 29.4046 24.7711 29.7281 24.3073 30.1055L24.1903 30.2006C23.692 30.6054 23.1315 31.0522 22.5287 31.3955C21.9236 31.74 21.243 32.0001 20.5 32.0001C19.1122 32.0001 18.0111 31.4446 17.2684 30.9044Z" fill="#501B50"/>
</svg>
