<svg width="48" height="48" viewBox="0 0 48 48" fill="none" xmlns="http://www.w3.org/2000/svg">
<circle cx="24" cy="24" r="24" fill="#F6DBD4"/>
<path d="M24 16C22.7574 16 21.75 17.0074 21.75 18.25C21.75 19.4926 22.7574 20.5 24 20.5C25.2426 20.5 26.25 19.4926 26.25 18.25C26.25 17.0074 25.2426 16 24 16ZM18.8483 18.8271C18.1408 18.5654 17.3513 18.8947 17.0395 19.5815C16.6975 20.335 17.0602 21.221 17.8324 21.5183L20.9999 22.7378V25.138L19.2845 29.8677C19.0079 30.6302 19.3725 31.4762 20.1166 31.7989C20.9226 32.1484 21.8568 31.7514 22.1646 30.9287L23.6761 26.8883C23.789 26.5864 24.2159 26.5858 24.3297 26.8875L25.8438 30.9033C26.1594 31.7404 27.1233 32.1287 27.9311 31.7442C28.6421 31.4058 28.9797 30.5826 28.711 29.8424L26.9999 25.1279V22.7346L30.1444 21.5424C30.8669 21.2685 31.2429 20.4717 30.9949 19.7399C30.7362 18.9764 29.8996 18.5756 29.1425 18.8526L27.1946 19.5653C27.0788 19.6077 26.9827 19.6913 26.9249 19.8003C26.3683 20.848 25.2668 21.5597 23.9999 21.5597C22.7269 21.5597 21.6209 20.8411 21.0669 19.7851C21.0095 19.6757 20.9136 19.5914 20.7977 19.5485L18.8483 18.8271Z" fill="#952F15"/>
</svg>
